<svg id="Layer_1" data-name="Layer 1" xmlns="http://www.w3.org/2000/svg" viewBox="0 0 128 128"><title>LOG OUT</title><path d="M13.076,97.083a1.75,1.75,0,0,0,1.75-1.75V66.667a1.75,1.75,0,0,0-3.5,0V95.333A1.75,1.75,0,0,0,13.076,97.083Z"/><path d="M122.38,64.97c.027-.041.046-.085.069-.128a1.037,1.037,0,0,0,.146-.348c.015-.051.035-.1.045-.152a1.755,1.755,0,0,0,0-.685c-.01-.053-.03-.1-.045-.152a1.733,1.733,0,0,0-.054-.174,1.692,1.692,0,0,0-.092-.174c-.023-.042-.042-.086-.069-.127a1.75,1.75,0,0,0-.22-.269L109.651,50.252a1.75,1.75,0,0,0-2.475,2.475L116.7,62.25H63.424a1.75,1.75,0,0,0,0,3.5H116.7l-9.523,9.523a1.75,1.75,0,1,0,2.475,2.475L122.16,65.239A1.75,1.75,0,0,0,122.38,64.97Z"/><path d="M95.424,72.25A1.75,1.75,0,0,0,93.674,74v36.9H48.633V17.1H93.674V54a1.75,1.75,0,1,0,3.5,0V15.35a1.75,1.75,0,0,0-1.75-1.75H48.633V6.5a1.75,1.75,0,0,0-2.461-1.6L6.365,22.593a1.751,1.751,0,0,0-1.039,1.6v79.615a1.751,1.751,0,0,0,1.039,1.6L46.172,123.1a1.75,1.75,0,0,0,2.461-1.6v-7.1H95.424a1.75,1.75,0,0,0,1.75-1.75V74A1.75,1.75,0,0,0,95.424,72.25ZM45.133,118.808,8.826,102.67V25.33L45.133,9.192Z"/></svg>